<?xml version="1.0" standalone="no"?>
<!DOCTYPE svg PUBLIC "-//W3C//DTD SVG 20010904//EN"
 "http://www.w3.org/TR/2001/REC-SVG-20010904/DTD/svg10.dtd">
<svg version="1.0" xmlns="http://www.w3.org/2000/svg"
 width="660.000000pt" height="660.000000pt" viewBox="0 0 660.000000 660.000000"
 preserveAspectRatio="xMidYMid meet">
<metadata>
Created by potrace 1.14, written by Peter Selinger 2001-2017
</metadata>
<g transform="translate(0.000000,660.000000) scale(0.100000,-0.100000)"
fill="#000000" stroke="none">
<path d="M10 5763 c0 -738 2 -835 15 -817 8 10 15 28 15 40 0 11 6 29 14 40 8
10 13 29 10 40 -4 14 0 23 10 27 9 4 16 15 16 25 0 10 9 29 20 42 11 13 20 29
20 37 0 8 7 21 15 29 8 9 15 27 15 42 0 15 7 38 15 52 8 14 20 36 27 50 7 14
18 31 25 38 7 7 13 20 13 28 0 8 4 14 8 14 8 0 39 56 40 73 0 5 9 15 19 23 11
8 13 13 6 14 -17 0 -17 20 0 20 8 0 20 11 27 25 7 14 17 25 22 25 4 0 8 7 8
15 0 8 4 15 9 15 5 0 12 8 15 18 13 35 33 61 86 110 29 27 58 64 64 83 8 26
19 36 44 44 17 5 32 15 32 23 0 17 25 43 34 35 3 -3 9 3 12 13 4 10 29 40 56
66 26 26 48 53 48 60 0 12 43 38 61 38 4 0 24 -51 44 -112 49 -149 126 -296
187 -358 l48 -49 -68 -88 c-63 -80 -134 -183 -221 -318 -18 -27 -58 -101 -89
-163 -50 -100 -56 -119 -56 -175 0 -81 34 -189 79 -252 19 -28 35 -55 35 -60
0 -6 -24 -40 -54 -75 -93 -110 -124 -200 -94 -277 12 -30 14 -91 12 -303 -4
-361 -18 -447 -100 -611 l-52 -105 -109 -31 c-107 -31 -345 -115 -371 -132 -8
-4 -12 -20 -10 -34 l3 -26 80 36 c81 36 366 135 372 129 2 -2 -17 -57 -43
-122 -56 -144 -70 -196 -85 -311 l-11 -88 -84 -28 c-46 -15 -118 -43 -159 -63
-68 -32 -75 -38 -75 -65 0 -16 2 -29 5 -29 3 0 37 16 75 35 70 35 214 95 228
95 11 0 35 -302 24 -309 -5 -3 -81 -68 -170 -145 l-162 -139 0 -256 0 -256 65
-54 c65 -55 125 -91 154 -91 39 -1 39 -16 0 -60 -22 -25 -80 -91 -129 -148
l-90 -102 0 -283 1 -282 54 148 c30 81 66 171 80 200 85 169 165 284 165 236
0 -11 88 -124 114 -146 66 -56 193 -115 316 -149 36 -9 68 -20 73 -24 4 -3 -6
-35 -22 -71 -56 -124 -128 -362 -165 -543 -20 -100 -21 -96 13 -96 32 0 31 -4
51 120 14 82 72 296 112 409 76 218 248 517 347 606 l23 19 74 -38 c53 -27 74
-43 74 -57 0 -11 -53 -140 -119 -287 -147 -331 -201 -472 -240 -631 -17 -68
-34 -127 -37 -132 -3 -5 32 -9 78 -9 l83 0 20 37 c31 59 143 172 220 222 69
45 208 101 220 89 4 -3 2 -23 -4 -45 -12 -42 -13 -233 -2 -273 4 -16 15 -26
30 -28 21 -3 22 -1 14 35 -12 56 -8 264 5 295 11 27 13 28 95 28 196 0 366
-85 539 -269 l86 -91 620 0 620 0 5 178 c5 180 23 308 72 517 12 55 31 158 41
228 17 123 19 130 48 151 78 58 219 88 343 75 88 -9 136 -26 207 -74 l59 -39
-6 -165 c-3 -91 -13 -206 -21 -256 -18 -104 -22 -547 -6 -589 l10 -26 449 0
449 0 -9 36 c-6 19 -26 75 -45 124 -19 49 -34 91 -34 93 0 3 14 7 32 11 17 3
64 22 103 41 91 43 172 127 223 231 20 41 39 74 43 74 8 0 62 -130 82 -197
l16 -52 -78 -104 c-74 -99 -152 -181 -223 -233 l-32 -24 55 0 54 0 100 110
c55 61 103 110 108 110 23 0 231 -116 295 -165 l73 -55 97 0 97 0 -31 30 c-29
30 -91 76 -239 179 -77 53 -166 101 -189 101 -31 0 -23 20 53 131 81 118 203
328 244 421 13 29 34 85 47 123 12 39 29 77 37 85 11 12 42 15 156 14 165 -1
234 -18 317 -79 l50 -37 0 76 0 76 -52 24 c-119 54 -217 70 -348 57 -52 -6
-95 -9 -96 -8 -4 4 93 477 116 567 37 145 79 266 98 283 48 44 164 59 241 32
l41 -14 0 64 c0 62 -1 65 -27 72 -16 4 -63 7 -105 7 -46 1 -78 5 -78 11 0 35
146 251 190 282 17 12 20 26 20 86 -1 62 -2 70 -14 54 -7 -9 -16 -17 -18 -17
-3 0 -22 -16 -43 -35 -21 -19 -52 -41 -69 -49 -17 -8 -49 -31 -71 -51 -22 -20
-65 -53 -95 -72 -30 -20 -70 -49 -88 -65 -18 -15 -38 -28 -44 -28 -6 0 -31
-17 -56 -37 -25 -21 -73 -55 -106 -77 -34 -21 -63 -42 -66 -46 -3 -4 -36 -27
-75 -50 -38 -24 -85 -55 -102 -68 -74 -55 -406 -254 -522 -312 -159 -80 -376
-169 -418 -172 -10 -1 -65 27 -123 62 -119 72 -288 150 -325 150 -17 0 -28 7
-34 23 -69 175 -123 265 -234 389 -81 91 -86 98 -50 80 125 -64 299 -111 463
-127 73 -7 245 8 360 31 479 97 1197 455 1658 827 65 52 72 62 72 94 l0 35
-24 -19 c-13 -10 -70 -54 -127 -99 -57 -44 -152 -113 -211 -153 -59 -41 -113
-80 -119 -87 -6 -8 -18 -14 -25 -14 -8 0 -43 -18 -79 -40 -36 -22 -67 -40 -70
-40 -9 0 -132 -75 -158 -97 -16 -12 -35 -23 -42 -23 -8 0 -43 -14 -78 -30 -36
-17 -75 -30 -86 -30 -12 0 -21 -4 -21 -9 0 -5 -14 -14 -31 -21 -26 -11 -32
-11 -41 1 -12 18 -3 455 13 604 15 146 6 366 -19 412 -31 58 -133 164 -201
208 -36 23 -104 64 -150 91 -98 58 -141 102 -141 146 0 58 111 184 405 460 28
25 71 72 98 105 26 32 89 102 140 156 l92 98 100 -17 c197 -33 397 -8 550 68
77 39 203 126 216 149 5 10 9 53 8 96 l0 78 -14 -43 c-7 -23 -18 -48 -23 -55
-6 -7 -15 -30 -21 -53 -10 -39 -15 -42 -118 -92 -150 -72 -212 -91 -333 -103
-191 -19 -450 26 -755 131 -459 157 -845 527 -981 940 -23 71 -28 103 -28 195
-1 96 2 117 23 163 23 51 27 54 125 102 63 31 104 46 110 40 5 -5 8 -37 7 -72
-6 -195 167 -526 393 -754 292 -293 649 -427 1049 -394 229 19 364 49 496 112
57 27 71 37 71 56 l0 22 -42 -21 c-70 -36 -168 -70 -263 -91 -115 -25 -462
-37 -586 -18 -175 25 -380 115 -541 235 -280 211 -520 591 -543 860 l-7 81 60
37 c33 20 97 74 143 119 81 81 83 83 56 86 -24 3 -43 -10 -117 -81 -89 -87
-130 -114 -217 -143 -78 -27 -179 -81 -201 -109 -19 -24 -21 -24 -48 -10 -16
8 -35 15 -43 15 -7 0 -102 38 -210 85 -315 136 -525 201 -617 191 -103 -12
-381 -103 -551 -181 -17 -8 -36 -15 -42 -15 -24 0 -157 145 -182 197 -20 44
-28 52 -51 53 -26 0 -27 -2 -17 -27 24 -63 73 -135 120 -176 l51 -44 -59 -7
c-342 -40 -909 -188 -1111 -290 -37 -19 -83 -50 -102 -69 -19 -19 -62 -57 -95
-84 -33 -28 -102 -94 -154 -146 -77 -78 -97 -94 -109 -85 -27 23 -95 131 -133
212 -37 79 -89 241 -89 276 0 22 199 197 315 278 44 30 126 79 182 109 l103
53 -48 0 c-38 0 -63 -9 -125 -44 -126 -72 -236 -155 -336 -254 -51 -51 -96
-90 -99 -88 -18 19 -23 283 -6 364 l4 22 -440 0 -440 0 0 -837z m3538 730 c39
-9 72 -20 72 -23 0 -3 -17 -14 -37 -24 -132 -62 -416 -280 -546 -416 -80 -85
-96 -107 -119 -171 -47 -127 -68 -212 -88 -355 -23 -168 -37 -233 -145 -664
-45 -184 -111 -447 -144 -585 -34 -137 -74 -302 -90 -365 -50 -200 -100 -449
-126 -625 -23 -159 -40 -245 -50 -245 -37 0 -274 100 -346 147 -25 16 -27 15
-73 -17 l-48 -32 6 28 c3 16 13 81 22 144 24 178 48 292 134 636 72 293 135
560 189 804 39 178 76 387 136 765 20 124 60 314 81 380 29 94 46 120 126 190
71 63 119 97 311 220 32 20 87 48 122 60 35 13 80 31 99 40 19 9 109 44 198
76 178 64 176 64 316 32z m-798 -190 c0 -27 -121 -68 -435 -147 -335 -86 -596
-165 -632 -192 -16 -12 -16 -15 -3 -24 53 -36 254 -62 493 -63 86 0 157 -4
157 -7 0 -4 -5 -20 -10 -36 l-10 -29 -151 -3 c-173 -3 -296 -20 -423 -57 -390
-114 -659 -326 -776 -610 -84 -206 -121 -328 -128 -425 l-7 -95 -28 41 c-39
58 -67 137 -74 208 -5 59 -3 66 45 161 138 275 328 534 559 762 204 201 246
227 503 314 218 73 480 136 805 193 97 17 115 18 115 9z m1548 -82 c11 -7 11
-14 -3 -41 -26 -50 -29 -133 -11 -234 69 -364 342 -721 728 -951 152 -91 409
-188 632 -239 l28 -7 -73 -77 c-41 -42 -102 -107 -135 -144 l-61 -68 -57 20
c-164 56 -287 138 -355 237 -114 166 -364 458 -514 603 -218 209 -263 236
-507 305 -99 29 -778 150 -925 166 -55 6 -102 13 -104 14 -1 2 1 16 6 32 l10
28 112 -2 c216 -3 638 -53 797 -94 104 -26 160 -21 208 22 39 33 46 49 81 179
31 111 98 260 117 260 7 0 19 -4 26 -9z m-1144 -693 c20 -23 36 -49 36 -57 0
-9 -12 -70 -26 -136 -14 -66 -28 -132 -31 -147 l-5 -28 103 5 c57 3 103 7 104
8 0 1 18 29 40 62 53 79 94 125 111 125 23 0 16 -36 -21 -110 -19 -38 -35 -73
-35 -76 0 -7 139 -1 412 18 212 14 226 11 321 -86 41 -42 64 -72 56 -75 -7 -2
-53 17 -103 43 l-91 46 -87 -10 c-48 -6 -105 -11 -128 -12 -22 -1 -40 -3 -40
-6 0 -16 117 -192 127 -192 7 0 70 17 139 37 l126 37 67 -23 c80 -28 111 -46
111 -68 0 -13 -8 -14 -52 -8 -109 16 -188 10 -263 -20 -38 -15 -74 -32 -79
-36 -5 -4 12 -43 38 -87 25 -43 46 -81 46 -84 0 -3 18 -38 40 -78 22 -40 40
-79 40 -86 0 -14 -78 -30 -90 -18 -4 5 -20 32 -35 59 -66 120 -111 202 -125
228 -9 18 -20 26 -30 23 -8 -2 -87 -32 -175 -66 -88 -34 -173 -65 -190 -70
-29 -8 -112 -42 -220 -90 -27 -12 -88 -35 -134 -51 -87 -31 -111 -29 -111 11
0 20 77 174 120 240 17 25 49 82 71 128 30 59 47 82 60 82 42 0 141 -85 122
-104 -4 -3 -25 -6 -48 -6 l-41 0 -27 -93 c-15 -51 -27 -96 -27 -99 0 -7 173
51 184 63 6 5 17 9 26 9 9 0 33 9 55 20 22 11 45 20 52 20 7 0 21 4 31 10 29
16 172 70 187 70 29 0 24 22 -27 122 -29 57 -54 105 -56 107 -2 4 -146 -19
-252 -40 -47 -9 -184 -28 -260 -35 -25 -3 -90 -16 -145 -29 -54 -14 -103 -21
-107 -17 -4 4 -1 26 6 47 8 22 36 99 62 170 25 72 63 171 84 220 36 89 37 90
19 120 -24 41 -23 55 5 55 16 0 36 -14 60 -42z m-1086 0 c-2 -17 -13 -25 -40
-32 l-38 -10 0 -176 c0 -237 -8 -328 -30 -340 -12 -7 -41 3 -106 36 -85 44
-127 68 -282 162 -40 24 -74 43 -76 41 -7 -11 -96 -242 -96 -250 0 -5 51 -33
113 -63 62 -30 155 -77 206 -105 l93 -51 -6 28 c-3 15 -9 48 -12 75 -7 47 -7
47 -39 41 -36 -6 -50 5 -40 34 5 19 25 31 84 50 29 10 36 9 53 -11 46 -51 115
-282 101 -336 -6 -23 -15 -26 -41 -11 -9 5 -64 30 -122 56 -57 25 -173 82
-258 126 -85 44 -158 76 -162 72 -8 -8 -43 -120 -72 -226 -11 -40 -22 -45 -62
-27 -30 14 -29 28 20 180 19 59 34 111 34 116 0 7 -121 73 -135 73 -3 0 -10
-20 -16 -45 -12 -47 -25 -63 -39 -49 -5 5 -10 45 -11 89 -2 80 -2 80 24 83 15
2 67 -13 118 -33 50 -20 92 -35 94 -33 1 1 19 43 40 92 20 49 45 106 56 127
l19 39 -51 25 -50 26 -45 -26 c-67 -39 -90 -9 -35 46 52 52 140 39 396 -59 66
-25 134 -54 150 -64 17 -10 35 -18 40 -18 6 0 21 53 34 118 27 143 48 217 64
230 16 13 44 19 90 21 34 1 38 -1 35 -21z m-600 -765 c2 -17 -4 -55 -12 -84
-9 -29 -13 -56 -9 -60 7 -7 172 -80 328 -146 33 -14 102 -46 153 -71 77 -38
92 -49 90 -66 -2 -16 -9 -20 -26 -18 -23 3 -202 68 -264 95 -18 8 -73 31 -122
52 -49 20 -107 48 -130 61 -22 14 -53 30 -68 37 -24 10 -28 17 -28 52 1 59 26
166 42 176 24 16 43 5 46 -28z m2380 -105 c21 -32 58 -94 85 -136 51 -82 50
-90 -13 -91 -31 -1 -48 18 -93 103 -58 108 -58 108 -112 26 -51 -79 -51 -78
-205 -119 -58 -16 -157 -47 -220 -69 -157 -56 -318 -114 -420 -152 -215 -79
-297 -102 -306 -89 -7 12 18 60 36 70 8 5 89 35 180 69 91 33 174 65 185 70
11 5 103 37 205 70 102 33 192 63 200 67 8 3 18 6 22 5 3 -1 32 5 64 14 65 17
111 50 212 156 102 106 119 106 180 6z m-2649 -88 c32 -10 132 -55 222 -99
l164 -80 -58 0 c-81 -1 -202 -28 -265 -59 -217 -106 -328 -338 -263 -551 18
-61 30 -79 85 -134 122 -122 273 -177 486 -177 111 0 149 9 213 50 26 16 49
30 51 30 2 0 0 -19 -5 -42 -4 -24 -20 -122 -34 -218 -15 -96 -32 -183 -39
-192 -13 -20 -372 -204 -486 -249 -231 -93 -547 -281 -743 -442 -37 -31 -51
-37 -60 -28 -8 8 -12 66 -11 194 0 154 4 194 22 260 29 106 78 225 175 430
l82 172 -3 351 -3 351 32 39 c17 21 76 106 131 187 133 199 159 227 209 227
22 0 66 -9 98 -20z m3185 -180 c59 -36 182 -154 254 -245 75 -94 187 -202 260
-249 39 -26 72 -51 72 -56 0 -14 103 -86 201 -141 72 -40 114 -73 182 -142
111 -115 123 -147 113 -317 -3 -63 -11 -155 -16 -205 -5 -49 -12 -198 -15
-330 -8 -301 -7 -298 -49 -323 -71 -42 -329 -126 -531 -174 -112 -26 -351 -36
-451 -19 -165 29 -453 151 -679 288 -276 167 -654 315 -1170 458 -115 32 -215
62 -222 67 -7 6 -9 19 -3 38 4 15 16 84 25 152 37 272 64 407 136 679 l9 36
162 53 c209 68 317 107 453 165 155 67 485 174 720 235 232 60 289 69 405 67
79 -2 91 -5 144 -37z m-2729 -94 c28 -13 62 -37 77 -53 l28 -29 -123 1 c-112
0 -127 -2 -178 -26 -80 -38 -134 -96 -183 -198 l-41 -86 0 -133 0 -133 -25 6
c-37 9 -87 51 -115 95 -93 147 -64 315 77 446 102 94 203 132 348 133 69 1 94
-4 135 -23z m303 -199 c12 -14 5 -87 -8 -87 -8 0 -40 89 -40 110 0 13 30 -1
48 -23z m578 -122 c-3 -20 -16 -31 -16 -13 0 13 8 28 16 28 1 0 1 -7 0 -15z
m-584 -871 c21 -15 38 -31 38 -36 0 -5 -11 -96 -24 -201 -14 -106 -28 -243
-32 -304 l-7 -113 -66 0 c-36 0 -76 -3 -88 -6 -21 -6 -23 -3 -23 27 0 93 57
498 82 583 8 25 23 45 42 57 38 23 33 24 78 -7z m-165 -81 c-2 -16 -16 -93
-30 -173 -30 -172 -49 -332 -46 -398 1 -26 -5 -72 -15 -103 l-17 -57 -77 -27
c-85 -29 -256 -117 -342 -175 -76 -51 -87 -53 -124 -31 -87 55 -156 209 -156
351 0 104 71 289 120 315 15 8 72 32 126 54 164 66 353 155 454 214 52 30 99
56 104 56 4 1 6 -11 3 -26z m352 -12 c58 -22 198 -64 311 -96 175 -48 322 -91
468 -136 17 -6 32 -14 32 -18 0 -4 -18 -17 -39 -29 -51 -29 -132 -118 -159
-175 -39 -83 -55 -165 -49 -260 5 -100 20 -87 -128 -111 -49 -8 -133 -18 -186
-22 l-96 -7 -64 81 c-35 44 -83 104 -106 134 -40 53 -85 78 -138 78 -17 0 -17
8 -11 108 4 59 16 190 26 292 11 102 20 188 20 193 0 11 5 10 119 -32z m1121
-358 c159 -63 389 -181 506 -261 54 -37 99 -72 101 -77 2 -6 -24 -20 -56 -33
-167 -65 -283 -191 -324 -353 -7 -27 -17 -50 -23 -49 -5 0 -36 19 -69 43 -123
88 -339 201 -474 247 l-75 26 -11 64 c-5 36 -7 83 -4 105 15 90 23 119 35 134
66 79 117 129 161 157 28 19 55 39 58 45 9 14 38 7 175 -48z m-2401 -138 c-11
-67 -6 -164 15 -270 13 -64 93 -242 124 -278 18 -21 26 -13 -108 -109 -124
-90 -290 -230 -429 -364 l-101 -97 -55 11 c-73 15 -148 55 -179 95 -57 74 -78
142 -83 261 -3 61 -1 125 3 142 9 32 84 103 339 323 176 152 469 370 482 358
2 -3 -1 -35 -8 -72z m1153 -116 l56 -11 67 -99 c81 -120 147 -182 184 -174 14
3 71 10 127 15 55 5 120 12 144 16 l44 7 -37 -45 c-60 -73 -107 -198 -107
-285 0 -45 24 -158 42 -198 15 -33 -7 -51 -147 -119 -118 -58 -220 -86 -310
-86 -52 0 -61 4 -133 57 -188 139 -261 243 -270 384 -7 122 36 427 73 516 l14
33 99 0 c54 0 124 -5 154 -11z m-367 -206 c-17 -123 -25 -219 -25 -305 0 -93
2 -102 40 -184 22 -48 39 -88 38 -88 -37 -15 -155 -76 -195 -102 l-55 -35 -46
23 c-96 46 -180 160 -201 273 -6 30 -6 80 -1 125 5 41 9 80 10 87 1 28 377
240 433 243 4 0 5 -17 2 -37z m2400 -35 c200 -206 285 -461 285 -859 l0 -130
-32 24 c-120 90 -408 94 -554 8 -19 -12 -37 -21 -38 -21 -2 0 -6 71 -9 158 -6
179 -24 263 -79 364 -34 63 -35 63 -27 151 7 72 14 99 40 145 59 105 146 180
240 206 96 26 106 23 174 -46z m-1165 -28 c17 -9 16 -15 -16 -77 -64 -129 -80
-288 -39 -407 8 -22 13 -42 11 -44 -2 -2 -43 0 -91 4 l-87 7 -26 56 c-22 46
-26 71 -27 141 0 119 30 184 139 297 37 39 44 42 80 37 21 -2 47 -9 56 -14z
m222 -96 c233 -118 431 -279 488 -397 28 -59 55 -177 48 -216 -3 -20 -4 -20
-33 -5 -55 30 -278 94 -455 130 -96 20 -180 41 -187 46 -7 5 -22 35 -34 66
-38 101 -26 206 43 380 16 42 39 42 130 -4z m-2017 -241 c0 -95 3 -116 28
-177 32 -78 64 -129 131 -203 l46 -51 -108 -108 c-102 -103 -190 -215 -261
-330 -29 -48 -34 -52 -80 -57 -107 -13 -275 48 -364 132 -86 80 -111 160 -68
219 103 145 303 364 458 504 92 82 208 178 217 178 0 0 1 -48 1 -107z m3380
-121 c100 -44 160 -77 271 -152 73 -50 74 -51 74 -94 0 -57 -47 -149 -107
-211 -52 -52 -169 -135 -192 -135 -7 0 -28 13 -47 29 -18 16 -40 33 -48 38
-12 7 -15 35 -17 148 -1 141 -19 323 -38 390 -7 28 -7 35 2 32 7 -3 53 -23
102 -45z m-3920 -199 c-106 -118 -250 -305 -322 -420 l-47 -74 -13 43 c-7 24
-13 46 -13 50 0 24 461 508 484 508 4 0 -36 -48 -89 -107z m1240 55 c22 -22
69 -59 105 -82 36 -22 74 -47 85 -54 55 -35 88 -43 144 -37 155 18 292 72 392
157 48 40 51 41 121 40 165 -2 525 -60 723 -116 28 -8 84 -24 125 -36 42 -12
93 -31 115 -43 l40 -23 0 -69 0 -70 -60 -12 c-120 -24 -282 -41 -537 -54 -286
-15 -505 0 -715 51 -24 5 -60 14 -80 18 -85 19 -287 95 -399 150 -150 73 -254
131 -254 142 0 8 135 80 149 80 3 0 24 -19 46 -42z m3256 -255 c194 -188 379
-442 379 -520 0 -86 -49 -203 -118 -283 -51 -61 -109 -90 -189 -97 l-68 -6
-29 54 c-63 115 -182 294 -240 358 -34 38 -84 95 -113 128 l-51 59 34 19 c19
10 68 54 109 97 77 80 123 159 146 251 6 26 15 47 20 47 5 0 59 -48 120 -107z
m-4891 -238 c0 -9 -6 -12 -15 -9 -8 4 -12 10 -9 15 8 14 24 10 24 -6z"/>
<path d="M2472 4975 c-9 -33 -19 -48 -41 -60 -36 -18 -73 -19 -89 -3 -7 7 -12
8 -12 2 0 -19 36 -44 63 -44 15 0 40 13 61 34 30 28 36 40 36 75 0 22 -1 41
-3 41 -2 0 -8 -20 -15 -45z"/>
<path d="M2401 4544 c0 -7 -14 -26 -30 -43 -24 -25 -37 -31 -71 -31 -45 0 -50
-13 -14 -37 18 -12 25 -10 62 17 46 33 66 63 59 88 -3 9 -5 12 -6 6z"/>
<path d="M2275 4086 c-22 -34 -68 -46 -105 -26 -20 11 -21 10 -10 -9 41 -78
153 -40 138 47 -3 17 -6 15 -23 -12z"/>
<path d="M2200 3667 c0 -10 -14 -32 -30 -49 -26 -26 -35 -29 -65 -24 -29 6
-34 4 -28 -9 12 -33 100 -48 122 -21 18 21 25 81 12 102 -10 18 -10 18 -11 1z"/>
<path d="M3910 4320 c-269 -36 -488 -234 -590 -536 -39 -115 -37 -147 13 -221
37 -55 160 -163 240 -212 310 -185 717 -130 950 129 60 66 87 139 87 233 0
134 -71 330 -154 425 -82 93 -228 161 -386 182 -83 10 -82 10 -160 0z m232
-99 c60 -16 188 -74 188 -85 0 -2 -60 -3 -132 -2 -151 0 -214 -14 -313 -69
-83 -46 -145 -112 -187 -198 -62 -124 -86 -250 -70 -370 5 -39 5 -70 0 -73 -5
-3 -33 6 -63 21 -62 30 -153 124 -185 190 -20 41 -20 45 -5 91 53 161 156 314
265 396 140 104 332 142 502 99z"/>
<path d="M5175 6590 c12 -20 169 -131 255 -182 315 -184 654 -293 1055 -338
120 -13 117 -14 113 13 -3 20 -10 23 -83 29 -434 38 -881 197 -1205 430 -56
40 -91 58 -111 58 -18 0 -28 -4 -24 -10z"/>
<path d="M6574 4568 c-45 -50 -88 -124 -110 -190 -48 -141 -54 -242 -20 -353
15 -51 56 -211 82 -320 8 -33 27 -109 43 -170 l30 -110 0 108 c1 102 -2 120
-65 354 -59 220 -66 253 -60 307 10 101 46 212 88 277 28 44 38 70 36 91 l-3
30 -21 -24z"/>
<path d="M6560 545 c-68 -158 -142 -293 -241 -440 l-67 -100 170 -3 c94 -1
173 -1 175 1 2 2 2 143 1 313 l-3 309 -35 -80z"/>
</g>
</svg>
